<mxfile host="app.diagrams.net" modified="2023-04-22T16:41:53.705Z" agent="Mozilla/5.0 (Windows NT 10.0; Win64; x64) AppleWebKit/537.36 (KHTML, like Gecko) Chrome/112.0.0.0 Safari/537.36" etag="v3J1aNpP07Uldf-UKQji" version="21.1.8" type="device">
  <diagram name="第 1 页" id="wM3dwcdyRosAcIQ87HFO">
    <mxGraphModel dx="1050" dy="548" grid="1" gridSize="10" guides="1" tooltips="1" connect="1" arrows="1" fold="1" page="1" pageScale="1" pageWidth="827" pageHeight="1169" math="0" shadow="0">
      <root>
        <mxCell id="0" />
        <mxCell id="1" parent="0" />
        <mxCell id="pSclN0zKzRviR3vzlVsL-9" style="edgeStyle=orthogonalEdgeStyle;rounded=0;orthogonalLoop=1;jettySize=auto;html=1;exitX=1;exitY=0.5;exitDx=0;exitDy=0;" edge="1" parent="1" source="pSclN0zKzRviR3vzlVsL-1" target="pSclN0zKzRviR3vzlVsL-5">
          <mxGeometry relative="1" as="geometry" />
        </mxCell>
        <mxCell id="pSclN0zKzRviR3vzlVsL-11" style="edgeStyle=orthogonalEdgeStyle;rounded=0;orthogonalLoop=1;jettySize=auto;html=1;exitX=0.5;exitY=0;exitDx=0;exitDy=0;entryX=0.5;entryY=1;entryDx=0;entryDy=0;curved=1;strokeColor=#CC00CC;strokeWidth=2;" edge="1" parent="1" source="pSclN0zKzRviR3vzlVsL-1" target="pSclN0zKzRviR3vzlVsL-2">
          <mxGeometry relative="1" as="geometry">
            <Array as="points">
              <mxPoint x="220" y="320" />
              <mxPoint x="360" y="320" />
              <mxPoint x="360" y="280" />
              <mxPoint x="220" y="280" />
            </Array>
          </mxGeometry>
        </mxCell>
        <mxCell id="pSclN0zKzRviR3vzlVsL-1" value="控制器" style="rounded=0;whiteSpace=wrap;html=1;fillColor=#cdeb8b;strokeColor=#36393d;" vertex="1" parent="1">
          <mxGeometry x="160" y="360" width="120" height="40" as="geometry" />
        </mxCell>
        <mxCell id="pSclN0zKzRviR3vzlVsL-10" style="edgeStyle=orthogonalEdgeStyle;rounded=0;orthogonalLoop=1;jettySize=auto;html=1;exitX=1;exitY=0.5;exitDx=0;exitDy=0;endArrow=block;endFill=0;" edge="1" parent="1" source="pSclN0zKzRviR3vzlVsL-2" target="pSclN0zKzRviR3vzlVsL-3">
          <mxGeometry relative="1" as="geometry" />
        </mxCell>
        <mxCell id="pSclN0zKzRviR3vzlVsL-2" value="展示器" style="rounded=0;whiteSpace=wrap;html=1;fillColor=#cdeb8b;strokeColor=#36393d;" vertex="1" parent="1">
          <mxGeometry x="160" y="200" width="120" height="40" as="geometry" />
        </mxCell>
        <mxCell id="pSclN0zKzRviR3vzlVsL-3" value="&amp;lt;&amp;lt;Interface&amp;gt;&amp;gt;&lt;br&gt;用例的输出" style="rounded=0;whiteSpace=wrap;html=1;fillColor=#ffcccc;strokeColor=#36393d;" vertex="1" parent="1">
          <mxGeometry x="360" y="200" width="120" height="40" as="geometry" />
        </mxCell>
        <mxCell id="pSclN0zKzRviR3vzlVsL-7" style="edgeStyle=orthogonalEdgeStyle;rounded=0;orthogonalLoop=1;jettySize=auto;html=1;exitX=0.5;exitY=0;exitDx=0;exitDy=0;entryX=0.5;entryY=1;entryDx=0;entryDy=0;" edge="1" parent="1" source="pSclN0zKzRviR3vzlVsL-4" target="pSclN0zKzRviR3vzlVsL-3">
          <mxGeometry relative="1" as="geometry" />
        </mxCell>
        <mxCell id="pSclN0zKzRviR3vzlVsL-8" style="edgeStyle=orthogonalEdgeStyle;rounded=0;orthogonalLoop=1;jettySize=auto;html=1;exitX=0.5;exitY=1;exitDx=0;exitDy=0;entryX=0.5;entryY=0;entryDx=0;entryDy=0;endArrow=block;endFill=0;" edge="1" parent="1" source="pSclN0zKzRviR3vzlVsL-4" target="pSclN0zKzRviR3vzlVsL-5">
          <mxGeometry relative="1" as="geometry" />
        </mxCell>
        <mxCell id="pSclN0zKzRviR3vzlVsL-4" value="用例交互" style="rounded=0;whiteSpace=wrap;html=1;fillColor=#ffcccc;strokeColor=#36393d;" vertex="1" parent="1">
          <mxGeometry x="360" y="280" width="120" height="40" as="geometry" />
        </mxCell>
        <mxCell id="pSclN0zKzRviR3vzlVsL-5" value="&amp;lt;&amp;lt;Interface&amp;gt;&amp;gt;&lt;br&gt;用例的输入" style="rounded=0;whiteSpace=wrap;html=1;fillColor=#ffcccc;strokeColor=#36393d;" vertex="1" parent="1">
          <mxGeometry x="360" y="360" width="120" height="40" as="geometry" />
        </mxCell>
        <mxCell id="pSclN0zKzRviR3vzlVsL-15" value="控制流" style="text;html=1;strokeColor=none;fillColor=none;align=center;verticalAlign=middle;whiteSpace=wrap;rounded=0;fontStyle=1;fontColor=#CC00CC;" vertex="1" parent="1">
          <mxGeometry x="190" y="285" width="60" height="30" as="geometry" />
        </mxCell>
      </root>
    </mxGraphModel>
  </diagram>
</mxfile>
